HIERARCHY
ROOT Wrist
{
	OFFSET 0.00 0.00 0.00
	CHANNELS 6 Xposition Yposition Zposition Xrotation Yrotation Zrotation
	Joint Little_Metacarpal
	{
		OFFSET -0.028707 0.002084 -0.027748
		CHANNELS 3 Xrotation Yrotation Zrotation
		Joint Little_Proximal
		{
			OFFSET -0.033639 -0.008508 -0.095537
			CHANNELS 3 Xrotation Yrotation Zrotation
			Joint Little_Intermediate
			{
				OFFSET -0.014886 -0.012114 -0.055495
				CHANNELS 3 Xrotation Yrotation Zrotation
				Joint Little_Distal
				{
					OFFSET -0.006141 -0.007774 -0.023711
					CHANNELS 3 Xrotation Yrotation Zrotation
					Joint Little_Tip
					{
						OFFSET -0.00227 -0.009647 -0.019238
						CHANNELS 3 Xrotation Yrotation Zrotation
						End Site
						{
							OFFSET 0.001 0.001 0.001
						}
					}
				}
			}
		}
	}
	Joint Ring_Metacarpal
	{
		OFFSET -0.012366 0.001725 -0.029352
		CHANNELS 3 Xrotation Yrotation Zrotation
		Joint Ring_Proximal
		{
			OFFSET -0.018549 0.010541 -0.117421
			CHANNELS 3 Xrotation Yrotation Zrotation
			Joint Ring_Intermediate
			{
				OFFSET -0.014284 -0.016597 -0.060738
				CHANNELS 3 Xrotation Yrotation Zrotation
				Joint Ring_Distal
				{
					OFFSET -0.005423 -0.013867 -0.033029
					CHANNELS 3 Xrotation Yrotation Zrotation
					Joint Ring_Tip
					{
						OFFSET -0.002835 -0.011872 -0.02616
						CHANNELS 3 Xrotation Yrotation Zrotation
						End Site
						{
							OFFSET 0.001 0.001 0.001
						}
					}
				}
			}
		}
	}
	Joint Middle_Metacarpal
	{
		OFFSET 0.001855 0.002895 -0.025812
		CHANNELS 3 Xrotation Yrotation Zrotation
		Joint Palm
		{
			OFFSET 0.00053 0.012199 -0.064706
			CHANNELS 3 Xrotation Yrotation Zrotation
			Joint Middle_Proximal
			{
				OFFSET 0.00053 0.002961 -0.064706
				CHANNELS 3 Xrotation Yrotation Zrotation
				Joint Middle_Intermediate
				{
					OFFSET -0.000036 -0.01298 -0.061775
					CHANNELS 3 Xrotation Yrotation Zrotation
					Joint Middle_Distal
					{
						OFFSET 0.000274 -0.015333 -0.053566
						CHANNELS 3 Xrotation Yrotation Zrotation
						Joint Middle_Tip
						{
							OFFSET -0.000548 -0.007813 -0.02408
							CHANNELS 3 Xrotation Yrotation Zrotation
							End Site
							{
								OFFSET 0.001 0.001 0.001
							}
						}
					}
				}
			}
		}
	}
	Joint Index_Metacarpal
	{
		OFFSET 0.015899 0.00425 -0.023128
		CHANNELS 3 Xrotation Yrotation Zrotation
		Joint Index_Proximal
		{
			OFFSET 0.015536 0.014243 -0.130857
			CHANNELS 3 Xrotation Yrotation Zrotation
			Joint Index_Intermediate
			{
				OFFSET 0.010432 -0.007019 -0.058063
				CHANNELS 3 Xrotation Yrotation Zrotation
				Joint Index_Distal
				{
					OFFSET 0.008816 -0.004391 -0.036962
					CHANNELS 3 Xrotation Yrotation Zrotation
					Joint Index_Tip
					{
						OFFSET 0.005635 -0.01015 -0.025037
						CHANNELS 3 Xrotation Yrotation Zrotation
						End Site
						{
							OFFSET 0.001 0.001 0.001
						}
					}
				}
			}
		}
	}
	Joint Thumb_Metacarpal
	{
		OFFSET 0.029443 -0.001235 -0.02009
		CHANNELS 3 Xrotation Yrotation Zrotation
		Joint Thumb_Proximal
		{
			OFFSET 0.045426 -0.009009 -0.055883
			CHANNELS 3 Xrotation Yrotation Zrotation
			Joint Thumb_Distal
			{
				OFFSET 0.036738 -0.017865 -0.036781
				CHANNELS 3 Xrotation Yrotation Zrotation
				Joint Thumb_Tip
				{
					OFFSET 0.021267 -0.018606 -0.029161
					CHANNELS 3 Xrotation Yrotation Zrotation
					End Site
					{
						OFFSET 0.001 0.001 0.001
					}
				}
			}
		}
	}
}
MOTION
Frames: 15
Frame Time: 1
0.3371 0.4987 0.6149 83.796005 77.660986 -47.390711 0.00 0.00 0.00 -57.286675 -23.145394 34.459465 -53.343118 71.308213 -75.379627 -46.516853 -1.110699 -24.882166 0.00 0.00 0.00 0.00 0.00 0.00 -47.35086 -5.130785 10.482742 -80.265542 -3.358755 15.090012 -50.559717 10.928432 -18.873484 0.00 0.00 0.00 0.00 0.00 0.00 0.00 0.00 0.00 -14.248139 -5.945729 12.913982 -76.542706 13.464948 -6.558533 -58.338237 23.87133 -34.381239 0.00 0.00 0.00 0.00 0.00 0.00 -30.10981 0.92669 18.15367 -87.836888 105.532153 -104.788469 -31.843349 0.197616 -2.418698 0.00 0.00 0.00 -12.368687 -4.260943 19.704426 15.736035 4.767056 29.851816 -10.093012 -15.427232 -23.3811 0.00 0.00 0.00 
0.4053 -0.04656 1.019 -18.688198 60.318801 112.228573 0.00 0.00 0.00 -32.321531 18.172413 -20.706823 -48.858365 69.992657 -73.690569 24.145362 -3.625561 -14.334503 0.00 0.00 0.00 0.00 0.00 0.00 -38.58213 10.533484 -12.272527 -72.746583 116.542753 -106.086526 9.717442 8.685526 -13.317639 0.00 0.00 0.00 0.00 0.00 0.00 0.00 0.00 0.00 -35.658017 -4.090731 8.595141 -72.256858 132.095981 -127.025317 6.716586 9.59438 -7.116837 0.00 0.00 0.00 0.00 0.00 0.00 -50.579764 -1.027604 21.123987 -68.290321 93.946213 -93.118954 20.484321 2.130116 -19.811198 0.00 0.00 0.00 -31.915732 1.457125 4.825377 15.7526 4.65308 29.431777 10.506048 -15.422543 -22.095901 0.00 0.00 0.00 
-0.0304 0.1965 0.4632 40.644888 -123.788914 -108.782162 0.00 0.00 0.00 -23.577897 10.321136 -4.095383 -42.016349 11.232782 2.842083 15.296618 -1.531996 -8.154045 0.00 0.00 0.00 0.00 0.00 0.00 -18.636982 6.021798 -3.008167 -35.735577 -2.019041 20.008481 -3.606511 8.61204 -14.686527 0.00 0.00 0.00 0.00 0.00 0.00 0.00 0.00 0.00 -18.40902 -2.980352 6.180028 -41.978732 -7.020869 17.042806 -7.043592 9.598905 -8.690494 0.00 0.00 0.00 0.00 0.00 0.00 -28.750913 2.470913 15.744443 -33.479023 6.404583 6.234037 6.107616 3.34612 -14.568864 0.00 0.00 0.00 -61.300804 -16.514918 28.59958 28.045397 -2.080852 11.605245 1.938785 -16.178283 -29.040547 0.00 0.00 0.00 
0.01743 0.03776 0.678 -3.982898 46.172898 159.561552 0.00 0.00 0.00 -53.49079 29.165615 -32.959385 -62.587694 68.295628 -65.280066 -7.654992 -1.788788 -11.928946 0.00 0.00 0.00 0.00 0.00 0.00 -59.856752 17.456838 -19.859718 -79.531495 40.043705 -25.787029 -11.535909 9.105662 -18.422668 0.00 0.00 0.00 0.00 0.00 0.00 0.00 0.00 0.00 -57.953103 -13.091511 21.52064 -80.735944 -59.708735 73.092504 -10.962057 9.601106 -8.704538 0.00 0.00 0.00 0.00 0.00 0.00 -13.195004 2.5245 15.596131 -12.24915 8.387621 1.220292 13.705843 5.766371 -0.599641 0.00 0.00 0.00 -29.030821 -22.240394 36.349922 30.667577 19.696063 54.443052 31.645588 -5.464965 5.79392 0.00 0.00 0.00 
0.4945 0.06917 0.54 -20.526738 100.687029 105.130477 0.00 0.00 0.00 -25.912057 20.30968 -19.530209 -45.787621 76.839717 -75.69368 23.976409 -1.485504 -9.873564 0.00 0.00 0.00 0.00 0.00 0.00 -37.114647 12.931214 -13.936628 -59.988076 104.168438 -92.470707 12.832029 9.162798 -13.485853 0.00 0.00 0.00 0.00 0.00 0.00 0.00 0.00 0.00 -35.913189 -0.006742 4.001211 -73.976502 144.644364 -130.727335 13.287394 9.383319 -19.17154 0.00 0.00 0.00 0.00 0.00 0.00 -49.993013 -1.135986 22.220866 -54.555371 73.189712 -92.92749 13.015436 6.365286 1.991702 0.00 0.00 0.00 -35.395939 -8.249726 10.463652 22.549986 8.362046 29.519381 8.904065 -11.579081 -11.390337 0.00 0.00 0.00 
0.7978 0.1797 0.2696 14.591362 -31.768535 -109.929593 0.00 0.00 0.00 -16.349528 28.282488 -41.337838 -22.140709 50.813633 -31.60809 0.131179 -15.06277 -68.174065 0.00 0.00 0.00 0.00 0.00 0.00 -18.70644 11.583486 -11.094945 -57.727215 51.339233 -32.222012 -19.002472 10.954026 -44.697714 0.00 0.00 0.00 0.00 0.00 0.00 0.00 0.00 0.00 10.362789 -0.859761 7.54741 -12.619166 -5.743372 25.468433 6.653087 8.339671 -25.184014 0.00 0.00 0.00 0.00 0.00 0.00 17.054125 -9.780676 47.282118 6.471774 20.03678 0.292613 23.883797 2.950916 -8.720635 0.00 0.00 0.00 -18.813742 1.515777 -10.558241 15.567943 5.879981 21.942273 18.933588 -10.782933 -8.094105 0.00 0.00 0.00 
0.4839 -0.05928 0.728 46.981425 28.713682 -135.823926 0.00 0.00 0.00 4.970283 21.824464 17.093686 -2.793869 40.305551 13.948263 32.900263 -6.634506 -40.244765 0.00 0.00 0.00 0.00 0.00 0.00 18.214542 11.50863 5.333985 -9.993275 17.914932 20.245791 21.037102 11.44715 -19.038655 0.00 0.00 0.00 0.00 0.00 0.00 0.00 0.00 0.00 8.858071 -1.616212 3.019028 -11.540942 -1.066212 3.38548 5.135013 10.507992 -4.302144 0.00 0.00 0.00 0.00 0.00 0.00 -6.061922 -12.928957 15.880427 -10.932796 20.401536 -8.951545 13.047427 9.22886 10.839242 0.00 0.00 0.00 -16.196595 -10.520347 28.06196 23.771939 3.837765 15.895628 12.59914 -16.775136 -29.867946 0.00 0.00 0.00 
0.08413 -0.07382 0.5242 17.986093 42.469737 -162.490269 0.00 0.00 0.00 2.618969 20.660421 -0.356052 14.107033 37.330105 -15.268188 -11.422104 1.015355 -3.482542 0.00 0.00 0.00 0.00 0.00 0.00 9.252795 11.78558 6.496946 -11.079648 25.44012 -19.313767 -8.161916 13.424622 -2.09388 0.00 0.00 0.00 0.00 0.00 0.00 0.00 0.00 0.00 3.588951 -1.252097 6.373304 -35.283849 0.423787 -0.283129 7.52932 10.511633 -4.269155 0.00 0.00 0.00 0.00 0.00 0.00 -0.546569 -12.25329 4.211777 -22.674722 19.822088 -6.957848 19.293645 9.813064 12.933641 0.00 0.00 0.00 -47.523135 -7.403337 22.379318 39.273642 13.41374 33.935529 8.358956 -15.28539 -21.695958 0.00 0.00 0.00 
0.02147 0.05506 0.5841 -3.751354 -30.362786 -88.345478 0.00 0.00 0.00 -30.692538 24.592328 -15.798919 -1.54382 31.175924 -67.175969 -25.048153 2.557877 -8.374527 0.00 0.00 0.00 0.00 0.00 0.00 -17.923274 12.426033 -1.724429 -37.23912 35.925019 -43.950409 -21.02879 15.368525 -9.748785 0.00 0.00 0.00 0.00 0.00 0.00 0.00 0.00 0.00 -14.406392 -1.98072 13.996957 -47.045196 -3.549837 5.718897 -17.371336 11.04726 -10.360626 0.00 0.00 0.00 0.00 0.00 0.00 8.549472 -11.848519 9.989122 -21.913204 15.563821 4.236212 19.635134 7.299304 5.399496 0.00 0.00 0.00 -19.535176 -4.9841 18.130821 21.840302 16.349053 39.639068 3.316089 -12.71057 3.200474 0.00 0.00 0.00 
0.4945 0.3547 0.03535 28.210855 -6.518577 -92.022374 0.00 0.00 0.00 -9.745193 28.767999 -27.642619 -6.209197 31.002918 -64.619429 -6.901221 14.427745 -49.285839 0.00 0.00 0.00 0.00 0.00 0.00 -8.538515 14.194547 -9.414536 -50.103362 47.580266 -60.661669 -26.989301 21.596232 -24.959173 0.00 0.00 0.00 0.00 0.00 0.00 0.00 0.00 0.00 10.724528 -1.769205 7.577498 -6.730669 -1.679495 1.837692 -4.124922 9.381381 -1.504718 0.00 0.00 0.00 0.00 0.00 0.00 38.858333 -8.388747 18.284005 -10.40363 13.7823 10.599486 18.911255 6.00112 1.467907 0.00 0.00 0.00 -22.637296 5.901673 -11.526401 17.239094 12.761177 28.947967 12.592658 -15.066699 -13.649693 0.00 0.00 0.00 
0.3847 -0.04746 0.5389 -34.274405 50.614058 -148.603073 0.00 0.00 0.00 -8.07742 23.524254 5.291094 -11.92086 21.888545 -11.007734 16.860489 19.514798 3.917914 0.00 0.00 0.00 0.00 0.00 0.00 8.143732 14.15448 2.053474 -18.848822 8.26122 1.920257 5.290097 15.929528 3.389833 0.00 0.00 0.00 0.00 0.00 0.00 0.00 0.00 0.00 1.771693 -2.059847 4.915695 -16.331425 -2.271521 4.788303 -1.366268 9.509793 -4.184223 0.00 0.00 0.00 0.00 0.00 0.00 -1.077973 -6.387003 24.09076 -12.559987 18.162142 -11.145482 5.937787 6.181639 2.30152 0.00 0.00 0.00 -16.17643 -3.349215 15.800936 16.708977 10.747742 22.058856 5.370085 -16.054607 -19.95903 0.00 0.00 0.00 
0.3715 -0.0167 0.218 68.061797 -60.650133 -130.946297 0.00 0.00 0.00 10.762771 22.71682 -27.75618 -12.236619 27.974129 -39.514092 8.162056 14.512858 -18.816836 0.00 0.00 0.00 0.00 0.00 0.00 -7.206316 13.958203 -21.393153 -36.562976 11.974792 -5.962117 -10.580309 16.812821 -15.39658 0.00 0.00 0.00 0.00 0.00 0.00 0.00 0.00 0.00 -14.448907 -3.043504 13.719056 -32.314076 -3.588673 7.954506 -18.120577 9.854249 -6.197598 0.00 0.00 0.00 0.00 0.00 0.00 -2.686946 -6.605252 30.72661 -31.130496 16.69941 -7.267229 2.099559 6.413811 5.611736 0.00 0.00 0.00 -13.430703 1.125668 -1.582149 -11.713291 11.200323 32.099919 12.012389 -9.04965 24.074361 0.00 0.00 0.00 
0.3315 0.02799 1.21 57.794438 -171.869881 92.521299 0.00 0.00 0.00 -23.667596 24.650571 -44.083021 -33.411154 31.662582 -48.843209 -3.157358 16.718119 28.554062 0.00 0.00 0.00 0.00 0.00 0.00 -28.083142 13.432115 -19.686489 -41.620147 18.08838 -15.634283 1.284197 15.065656 5.80536 0.00 0.00 0.00 0.00 0.00 0.00 0.00 0.00 0.00 -9.074962 -0.665446 2.104177 -37.485823 1.989468 -1.769368 6.639072 8.935773 2.752624 0.00 0.00 0.00 0.00 0.00 0.00 -16.704194 -3.78498 14.217507 -22.866314 15.01787 -3.573768 16.36644 5.801128 1.82418 0.00 0.00 0.00 -1.259707 -0.639537 12.083303 7.078181 11.615464 21.997644 -2.797495 -12.795905 -19.896816 0.00 0.00 0.00 
0.1052 0.02374 0.564 -1.405862 30.861025 -139.531216 0.00 0.00 0.00 1.866881 24.044957 -40.960395 -3.158037 28.377578 -38.758923 32.916297 0.469392 -27.168609 0.00 0.00 0.00 0.00 0.00 0.00 -11.766422 20.693959 -40.573745 -32.640347 33.155757 -40.276403 -4.38324 16.148367 -32.670977 0.00 0.00 0.00 0.00 0.00 0.00 0.00 0.00 0.00 -37.05952 2.759171 -6.364053 -57.002891 9.181483 -11.412491 -37.427258 18.417084 -29.547986 0.00 0.00 0.00 0.00 0.00 0.00 -28.125756 -11.224126 33.474006 -40.570647 18.578842 -10.260799 -16.024001 5.785952 -3.049052 0.00 0.00 0.00 -19.199214 0.594896 5.225242 -3.896493 12.065025 38.012065 18.196705 -10.763038 -5.059563 0.00 0.00 0.00 
0.63 0.2363 0.7553 29.020982 -42.506651 -141.905322 0.00 0.00 0.00 -29.570782 23.406807 -38.39501 -30.090825 30.49578 -45.950566 7.419752 21.435531 28.09106 0.00 0.00 0.00 0.00 0.00 0.00 -30.724042 13.018818 -19.878656 -40.952277 19.394537 -17.553864 0.677077 14.602014 12.591331 0.00 0.00 0.00 0.00 0.00 0.00 0.00 0.00 0.00 -8.993374 -0.389419 1.435064 -34.700325 1.354549 -0.724783 3.627087 7.99972 3.184214 0.00 0.00 0.00 0.00 0.00 0.00 -16.315263 -3.258307 12.717954 -24.390544 13.409098 -0.74525 16.33758 5.79874 1.411254 0.00 0.00 0.00 -1.761177 -1.021489 13.992367 10.131833 10.982626 18.450619 1.531994 -12.679065 -16.092489 0.00 0.00 0.00 
